HIERARCHY
ROOT Hips
{
	OFFSET 0.00000 0.00000 0.00000
	CHANNELS 6 Xposition Yposition Zposition Zrotation Yrotation Xrotation 
	JOINT LHipJoint
	{
		OFFSET 0 0 0
		CHANNELS 3 Zrotation Yrotation Xrotation
		JOINT LeftUpLeg
		{
			OFFSET 1.37733 -1.58235 0.71371
			CHANNELS 3 Zrotation Yrotation Xrotation
			JOINT LeftLeg
			{
				OFFSET 2.33951 -6.42775 0.00000
				CHANNELS 3 Zrotation Yrotation Xrotation
				JOINT LeftFoot
				{
					OFFSET 2.30523 -6.33358 0.00000
					CHANNELS 3 Zrotation Yrotation Xrotation
					JOINT LeftToeBase
					{
						OFFSET 0.05388 -0.14857 1.53863
						CHANNELS 3 Zrotation Yrotation Xrotation
						End Site
						{
							OFFSET 0.00000 -0.00000 0.79208
						}
					}
				}
			}
		}
	}
	JOINT RHipJoint
	{
		OFFSET 0 0 0
		CHANNELS 3 Zrotation Yrotation Xrotation
		JOINT RightUpLeg
		{
			OFFSET -1.47839 -1.58235 0.71371
			CHANNELS 3 Zrotation Yrotation Xrotation
			JOINT RightLeg
			{
				OFFSET -2.26534 -6.22397 0.00000
				CHANNELS 3 Zrotation Yrotation Xrotation
				JOINT RightFoot
				{
					OFFSET -2.27037 -6.23779 0.00000
					CHANNELS 3 Zrotation Yrotation Xrotation
					JOINT RightToeBase
					{
						OFFSET -0.09543 -0.26220 1.62615
						CHANNELS 3 Zrotation Yrotation Xrotation
						End Site
						{
							OFFSET -0.00000 -0.00000 0.83991
						}
					}
				}
			}
		}
	}
	JOINT LowerBack
	{
		OFFSET 0 0 0
		CHANNELS 3 Zrotation Yrotation Xrotation
		JOINT Spine
		{
			OFFSET 0.00101 1.81877 -0.00412
			CHANNELS 3 Zrotation Yrotation Xrotation
			JOINT Spine1
			{
				OFFSET 0.00322 1.81934 -0.03962
				CHANNELS 3 Zrotation Yrotation Xrotation
				JOINT Neck
				{
					OFFSET 0 0 0
					CHANNELS 3 Zrotation Yrotation Xrotation
					JOINT Neck1
					{
						OFFSET -0.13795 1.66192 0.22650
						CHANNELS 3 Zrotation Yrotation Xrotation
						JOINT Head
						{
							OFFSET 0.14844 1.65995 -0.39123
							CHANNELS 3 Zrotation Yrotation Xrotation
							End Site
							{
								OFFSET 0.04109 1.72502 -0.16783
							}
						}
					}
				}
				JOINT LeftShoulder
				{
					OFFSET 0 0 0
					CHANNELS 3 Zrotation Yrotation Xrotation
					JOINT LeftArm
					{
						OFFSET 3.25446 1.41983 0.32106
						CHANNELS 3 Zrotation Yrotation Xrotation
						JOINT LeftForeArm
						{
							OFFSET 4.05444 -0.00000 -0.00000
							CHANNELS 3 Zrotation Yrotation Xrotation
							JOINT LeftHand
							{
								OFFSET 3.21205 -0.00000 0.00000
								CHANNELS 3 Zrotation Yrotation Xrotation
								JOINT LeftFingerBase
								{
									OFFSET 0 0 0
									CHANNELS 3 Zrotation Yrotation Xrotation
									JOINT LeftHandIndex1
									{
										OFFSET 0.70741 -0.00000 0.00000
										CHANNELS 3 Zrotation Yrotation Xrotation
										End Site
										{
											OFFSET 0.57033 -0.00000 0.00000
										}
									}
								}
								JOINT LThumb
								{
									OFFSET 0 0 0
									CHANNELS 3 Zrotation Yrotation Xrotation
									End Site
									{
										OFFSET 0.57904 -0.00000 0.57904
									}
								}
							}
						}
					}
				}
				JOINT RightShoulder
				{
					OFFSET 0 0 0
					CHANNELS 3 Zrotation Yrotation Xrotation
					JOINT RightArm
					{
						OFFSET -3.30007 1.25485 0.33947
						CHANNELS 3 Zrotation Yrotation Xrotation
						JOINT RightForeArm
						{
							OFFSET -3.74048 -0.00000 -0.00000
							CHANNELS 3 Zrotation Yrotation Xrotation
							JOINT RightHand
							{
								OFFSET -3.16030 -0.00000 0.00000
								CHANNELS 3 Zrotation Yrotation Xrotation
								JOINT RightFingerBase
								{
									OFFSET 0 0 0
									CHANNELS 3 Zrotation Yrotation Xrotation
									JOINT RightHandIndex1
									{
										OFFSET -0.71703 -0.00000 0.00000
										CHANNELS 3 Zrotation Yrotation Xrotation
										End Site
										{
											OFFSET -0.57809 -0.00000 0.00000
										}
									}
								}
								JOINT RThumb
								{
									OFFSET 0 0 0
									CHANNELS 3 Zrotation Yrotation Xrotation
									End Site
									{
										OFFSET -0.58691 -0.00000 0.58691
									}
								}
							}
						}
					}
				}
			}
		}
	}
}
MOTION
Frames: 10
Frame Time: .0083333
22.0663 12.5095 1.0187 163.0760 85.7711 179.6520 0.0000 0.0000 0.0000 -6.2058 -21.6524 -76.5057 18.1836 19.9207 84.6824 -0.1890 8.7797 -7.7478 5.1749 -13.5781 -41.5729 0.0000 0.0000 0.0000 7.4529 19.2912 -75.1102 -18.4243 -19.9404 85.3886 0.9515 18.6909 -1.4762 -0.5959 4.9417 -13.7425 -0.5884 -0.4914 14.1400 1.6413 -0.2187 8.1762 2.0744 0.0303 0.6991 -6.4355 -1.4468 -15.1884 1.8602 -0.7289 0.2870 1.7175 -0.2602 2.8180 -0.0000 -0.0000 0.0000 -75.1552 -28.1949 -164.1792 8.6057 -14.5299 -1.0991 -0.0000 -0.0000 99.6330 -49.8155 -58.9352 45.4036 -7.1250 0.0000 -0.0000 -36.8482 -29.5881 57.9810 -0.0000 -0.0000 0.0000 90.7604 7.3466 23.2953 -8.2718 13.9924 -1.0168 0.0000 0.0000 18.0223 24.5163 79.0460 24.1209 7.1250 -0.0000 -0.0000 29.5445 44.3449 43.7510
21.9127 12.3475 1.0133 171.0010 85.1878 182.2520 0.0000 0.0000 0.0000 -7.5864 -21.8826 -71.9640 18.7999 19.9654 86.4892 -0.1425 8.3299 -8.3514 5.0647 -13.4562 -41.1013 0.0000 0.0000 0.0000 9.4096 18.8835 -70.6938 -19.1384 -19.9822 87.4802 0.9358 17.7785 0.4729 -1.0296 6.4544 -18.1086 -0.1558 -0.5208 14.6823 1.4615 -0.2275 7.6694 1.6453 0.0411 -0.1293 -5.1749 -1.1547 -15.9573 0.2748 -0.4168 0.3699 0.9852 -0.1565 2.9477 0.0000 0.0000 0.0000 -87.2182 -40.9898 -85.8876 4.2352 -7.2893 -0.2699 -0.0000 -0.0000 21.7265 -37.9830 -38.2299 25.7888 -7.1250 0.0000 -0.0000 -34.7850 -9.5032 49.4357 0.0000 0.0000 0.0000 93.6769 25.0550 13.7285 -12.3688 20.3555 -2.2289 0.0000 0.0000 36.5719 -27.6214 64.1806 -25.2217 7.1250 -0.0000 -0.0000 12.5088 35.7459 17.6710
21.7241 12.1904 1.0011 175.4870 84.6558 182.2100 0.0000 0.0000 0.0000 -9.0829 -21.7956 -68.1367 19.2226 19.9855 87.7265 -0.0965 7.9364 -8.9872 5.0065 -13.3911 -40.8506 0.0000 0.0000 0.0000 10.8772 17.9199 -67.2645 -19.6573 -19.9972 88.9980 0.8766 16.8644 1.6765 -1.2412 7.0642 -19.9058 -0.0156 -0.4371 15.1125 1.3848 -0.1568 6.6337 1.4771 0.0625 -1.4532 -5.5120 -1.4874 -16.6488 0.1505 -0.7110 -0.3380 0.9813 -0.2783 2.8403 0.0000 0.0000 0.0000 -97.7324 -50.4992 -7.3029 10.0034 -16.7450 -1.4759 -0.0000 0.0000 -58.0449 -20.4993 -19.6554 7.1677 -7.1250 0.0000 -0.0000 -29.8951 10.6754 28.1003 0.0000 0.0000 0.0000 97.7407 40.3385 16.1740 -17.0840 26.9684 -4.1254 0.0000 0.0000 42.2159 -25.1944 46.5994 -18.8710 7.1250 -0.0000 -0.0000 6.8952 19.1655 8.8273
21.5257 12.0487 0.9882 181.1700 84.4281 184.2770 0.0000 0.0000 0.0000 -9.9768 -21.1671 -65.4341 19.5929 19.9960 88.8095 -0.0477 7.3466 -9.3169 5.0016 -13.3856 -40.8297 0.0000 0.0000 0.0000 12.3102 16.8511 -64.5924 -19.9310 -19.9999 89.7982 0.8045 15.9870 2.4319 -1.3480 7.3502 -20.7571 0.1374 -0.2284 15.0377 1.3629 0.0654 5.4037 1.3320 0.1475 -2.7142 -6.2180 -1.8805 -17.1732 0.5582 -1.0259 -1.8239 1.2147 -0.3574 2.4425 0.0000 0.0000 0.0000 -108.1821 -58.7372 19.6024 14.0366 -22.7870 -2.8423 -0.0000 0.0000 -81.3609 -3.8760 -12.9006 0.8666 -7.1250 0.0000 -0.0000 -21.2074 17.4965 14.9124 0.0000 0.0000 0.0000 101.8477 53.2618 31.2717 -18.1713 28.3759 -4.6303 0.0000 0.0000 44.7033 -25.1145 29.2841 -12.9136 7.1250 -0.0000 -0.0000 3.3034 1.7457 3.4081
21.3480 11.9567 0.9786 190.2300 84.4447 190.3480 0.0000 0.0000 0.0000 -10.0977 -20.0752 -63.5363 19.9192 19.9998 89.7636 -0.0099 6.5377 -9.0720 5.0498 -13.4397 -41.0376 0.0000 0.0000 0.0000 14.0179 15.8117 -62.0851 -19.9489 -19.9999 89.8505 0.7185 15.1059 2.4395 -1.2947 7.2092 -20.3367 0.4479 0.0035 14.4617 1.3980 0.3497 4.2830 1.1449 0.2617 -3.5885 -6.7812 -2.1446 -17.0014 1.1921 -1.2304 -4.0783 1.4983 -0.3453 1.6623 -0.0000 0.0000 0.0000 -118.4081 -67.7059 51.3680 21.9289 -32.8965 -6.5472 -0.0000 0.0000 -90.5062 22.6688 -10.4957 -4.3509 -7.1250 0.0000 -0.0000 -3.0950 18.6367 1.9465 -0.0000 0.0000 0.0000 108.4241 67.3907 46.8062 -21.4839 32.3888 -6.3071 0.0000 0.0000 38.9008 -20.6139 13.9565 -5.1838 7.1250 -0.0000 -0.0000 4.6546 -15.1434 3.2881
21.2008 11.9465 0.9596 196.0590 84.4745 194.2670 0.0000 0.0000 0.0000 -10.2650 -19.0421 -62.3649 20.0325 20.0000 90.0951 0.0083 5.6353 -8.2819 5.0124 -13.3978 -40.8763 0.0000 0.0000 0.0000 15.0344 14.5381 -60.4136 -19.7677 -19.9987 89.3208 0.6320 14.4636 1.1417 -0.8979 6.0392 -16.8982 0.5156 0.1883 12.9290 1.2836 0.5200 3.1971 0.9620 0.3165 -3.8966 -6.8878 -2.1572 -15.9286 1.6320 -1.2122 -7.2146 1.6421 -0.2093 0.4396 -0.0000 -0.0000 0.0000 -135.6250 -77.7824 92.6132 26.8824 -38.0668 -9.4265 -0.0000 0.0000 -78.2761 51.9112 -4.9610 -6.2962 -7.1250 0.0000 -0.0000 18.1977 22.0689 -10.5579 -0.0000 -0.0000 0.0000 122.0397 79.8453 67.4862 -23.2306 34.3400 -7.2680 0.0000 0.0000 27.0798 -26.2674 -5.9007 2.9045 7.1250 -0.0000 -0.0000 0.3803 -36.5540 0.0790
21.1186 12.1057 0.9225 198.0770 84.9754 193.6630 0.0000 0.0000 0.0000 -11.6059 -17.0187 -58.7357 19.4818 19.9936 88.4849 0.0115 4.5915 -6.9529 4.9546 -13.3324 -40.6260 0.0000 0.0000 0.0000 16.0140 12.5591 -56.7008 -19.0480 -19.9783 87.2156 0.5269 13.8717 -0.7675 -0.5497 4.7497 -13.1959 0.5559 0.4384 13.1407 0.7620 0.8390 3.3962 0.3424 0.4764 -3.7994 -7.1163 -3.2523 -22.5486 2.6274 -1.9366 -5.6720 1.9999 -0.4710 2.1416 -0.0000 0.0000 0.0000 131.1809 -82.2581 -158.8325 25.1333 -36.3400 -8.3688 -0.0000 0.0000 -74.2571 70.9595 4.0045 11.4394 -7.1250 0.0000 -0.0000 37.3550 38.5746 -7.1524 -0.0000 0.0000 0.0000 -102.0402 82.5930 -146.2394 -18.4820 28.7699 -4.7790 0.0000 0.0000 9.8046 -46.4755 -14.5302 14.7971 7.1250 -0.0000 -0.0000 -19.0277 -49.6242 2.2419
21.1203 12.5011 0.8752 199.9040 85.5950 190.4100 0.0000 0.0000 0.0000 -13.9102 -13.4337 -50.2805 18.0388 19.9075 84.2573 0.0039 3.2788 -4.8727 4.9698 -13.3497 -40.6920 0.0000 0.0000 0.0000 17.6275 8.6955 -48.3699 -17.3742 -19.8339 82.3024 0.3694 12.8690 -2.9212 -0.4530 4.3180 -11.9732 0.4393 0.5458 13.4677 0.4231 0.9311 2.7959 0.0311 0.5089 -4.6039 -7.0539 -3.0824 -16.1229 3.1849 -2.3085 -8.2732 2.1262 -0.6834 0.2061 -0.0000 0.0000 0.0000 92.0740 -72.7225 -115.0609 28.2557 -39.3506 -10.2854 -0.0000 0.0000 -76.3188 80.2328 16.1411 58.2339 -7.1250 0.0000 -0.0000 94.8571 61.2119 62.3822 -0.0000 0.0000 0.0000 -80.2665 71.2910 -116.3447 -19.9161 30.5412 -5.4887 0.0000 0.0000 0.2570 -47.8834 -13.5224 14.5006 7.1250 -0.0000 -0.0000 -20.2625 -48.6091 1.8748
21.1667 13.0596 0.8414 200.4680 86.3894 186.0210 0.0000 0.0000 0.0000 -15.5383 -8.9440 -41.2360 16.1282 19.6367 78.6134 -0.0012 1.4724 -1.9545 4.9733 -13.3536 -40.7070 0.0000 0.0000 0.0000 18.5152 4.2145 -39.3725 -15.1837 -19.4345 75.7895 0.0839 11.1819 -6.5171 -0.2627 3.2972 -9.1073 0.5600 0.8061 13.8210 -0.3215 1.2659 2.9569 -0.8796 0.6748 -4.6074 -6.2853 -3.5231 -15.9247 3.2036 -3.0965 -7.3214 1.9491 -1.1347 0.5130 0.0000 0.0000 0.0000 81.5942 -60.5590 -100.2752 30.0006 -40.8939 -11.4100 -0.0000 0.0000 -78.7918 88.9573 23.9789 87.4357 -7.1250 0.0000 -0.0000 120.9725 -59.6056 -153.6133 0.0000 0.0000 0.0000 -72.8887 58.4534 -103.5042 -21.7272 32.6674 -6.4380 0.0000 -0.0000 -8.2100 -48.0720 -16.8262 17.8642 7.1250 -0.0000 -0.0000 -21.5125 -53.0205 4.4073
21.2578 13.7460 0.7991 201.9450 87.5964 183.4010 0.0000 0.0000 0.0000 -16.0422 -3.8138 -32.7972 13.8565 19.0699 71.7658 -0.0009 -1.4514 1.9618 5.1271 -13.5255 -41.3689 0.0000 0.0000 0.0000 18.5596 -0.1087 -30.8191 -12.7350 -18.6844 68.3003 -0.3824 6.5997 -11.2494 -0.0194 0.8989 -2.4706 0.9195 1.1691 12.7978 -1.1768 1.7110 2.1437 -2.0418 0.8639 -4.8556 -4.7776 -3.7555 -15.2982 1.8779 -3.9133 -3.3783 1.1956 -1.7300 1.6763 -0.0000 0.0000 0.0000 73.7480 -51.6405 -87.7800 30.9790 -41.7179 -12.0559 -0.0000 0.0000 -79.6564 95.5747 -31.5455 -100.5678 -7.1250 0.0000 -0.0000 144.5218 -52.1235 -173.0578 -0.0000 0.0000 0.0000 -66.3686 48.9565 -92.8169 -23.9816 35.1448 -7.6960 0.0000 -0.0000 -16.3585 -50.5753 -14.7878 17.2475 7.1250 -0.0000 -0.0000 -23.7042 -50.9754 3.6660
